<svg width="36" height="29" viewBox="0 0 36 29" fill="none" xmlns="http://www.w3.org/2000/svg">
<path d="M35.4333 3.99999C34.15 4.58332 32.7666 4.96666 31.3333 5.14999C32.8 4.26666 33.9333 2.86666 34.4666 1.18332C33.0833 2.01666 31.55 2.59999 29.9333 2.93332C28.6166 1.49999 26.7666 0.666656 24.6666 0.666656C20.75 0.666656 17.55 3.86666 17.55 7.81666C17.55 8.38332 17.6166 8.93332 17.7333 9.44999C11.8 9.14999 6.51665 6.29999 2.99998 1.98332C2.38332 3.03332 2.03332 4.26666 2.03332 5.56666C2.03332 8.04999 3.28332 10.25 5.21665 11.5C4.03332 11.5 2.93332 11.1667 1.96665 10.6667V10.7167C1.96665 14.1833 4.43332 17.0833 7.69998 17.7333C6.65119 18.0203 5.55014 18.0603 4.48332 17.85C4.93599 19.2708 5.82254 20.514 7.01834 21.4049C8.21414 22.2957 9.65906 22.7895 11.15 22.8167C8.6227 24.8174 5.48998 25.8988 2.26665 25.8833C1.69998 25.8833 1.13332 25.85 0.56665 25.7833C3.73332 27.8167 7.49998 29 11.5333 29C24.6666 29 31.8833 18.1 31.8833 8.64999C31.8833 8.33332 31.8833 8.03332 31.8666 7.71666C33.2666 6.71666 34.4666 5.44999 35.4333 3.99999Z" fill="#CE0033"/>
</svg>
